<svg xmlns="http://www.w3.org/2000/svg" viewBox="0 0 612 471" width="612" height="471">
	<style>
		tspan { white-space:pre }
		.shp0 { fill: #578942 } 
	</style>
	<path id="Forma 1" class="shp0" d="M7.06 259.21C2.35 254.5 0 247.44 0 242.74C0 238.03 2.35 230.97 7.06 226.26L39.99 193.32C49.4 183.91 63.52 183.91 72.93 193.32L75.28 195.67L204.67 334.51C209.37 339.22 216.43 339.22 221.13 334.51L536.37 7.41L538.72 7.41L538.72 7.41L538.72 7.41C548.13 -2 562.25 -2 571.66 7.41L604.59 40.36C614 49.77 614 63.89 604.59 73.3L604.59 73.3L604.59 73.3L228.19 463.94C223.49 468.65 218.78 471 211.72 471C204.67 471 199.96 468.65 195.26 463.94L11.76 266.27L7.06 259.21Z" />
</svg>